<?xml version="1.0" encoding="utf-8"?>
<!-- Svg Vector Icons : http://www.onlinewebfonts.com/icon -->
<!DOCTYPE svg PUBLIC "-//W3C//DTD SVG 1.1//EN" "http://www.w3.org/Graphics/SVG/1.1/DTD/svg11.dtd">
<svg version="1.1" xmlns="http://www.w3.org/2000/svg" xmlns:xlink="http://www.w3.org/1999/xlink" x="0px" y="0px" viewBox="0 0 1000 1000" enable-background="new 0 0 1000 1000" xml:space="preserve">
<metadata> Svg Vector Icons : http://www.onlinewebfonts.com/icon </metadata>
<g><path d="M949.2,887.9V561.3c0-56.4-45.7-102.1-102.1-102.1h-61.2V275.4C785.8,128.8,667,10,520.4,10h-40.8C333,10,214.2,128.8,214.2,275.4v183.8h-61.3c-56.4,0-102.1,45.7-102.1,102.1v326.7c0,56.4,45.7,102.1,102.1,102.1h694.2C903.4,990,949.2,944.3,949.2,887.9z M377.5,663.3c0-67.7,54.8-122.5,122.5-122.5c67.6,0,122.5,54.8,122.5,122.5c0,53.3-34.1,98.7-81.7,115.5v88.7c0,22.5-18.3,40.8-40.8,40.8c-22.6,0-40.8-18.3-40.8-40.8v-88.7C411.6,762,377.5,716.6,377.5,663.3z M316.3,275.4c0-90.2,73.1-163.3,163.3-163.3h40.8c90.2,0,163.3,73.1,163.3,163.3v183.8H316.3V275.4z"/></g>
</svg>